# xmcd CD database file
#
# Track frame offsets:
#	150
#	16071
#	32575
#	48481
#	66279
#	79016
#	96368
#	114599
#	133806
#	145034
#	167121
#	182733
#	199476
#	216945
#
# Disc length: 3081 seconds
#
# Revision: 0
# Processed by: cddbd v1.5.1PL0 Copyright (c) Steve Scherf et al.
# Submitted via: CDex 1.40Release
#
DISCID=ca0c070e
DTITLE=Toby Keith - Greatest Hits Volume One
DYEAR=1998
DGENRE=Country
TTITLE0=Getcha Some
TTITLE1=If A Man Answers
TTITLE2=Should've Been A Cowboy
TTITLE3=Dream Walkin'
TTITLE4=A Little Less Talk And A Lot More Action
TTITLE5=Does That Blue Moon Ever Shine On You
TTITLE6=I'm So Happy I Can't Stop Crying (with Sting)
TTITLE7=We Were In Love
TTITLE8=You Ain't Much Fun
TTITLE9=Who's That Man
TTITLE10=Wish I Didn't Know Now
TTITLE11=Big Ol' Truck
TTITLE12=Me Too
TTITLE13=He Ain't Worth Missing
EXTD=YEAR: 1998 ID3G: 2
EXTT0=
EXTT1=
EXTT2=
EXTT3=
EXTT4=
EXTT5=
EXTT6=
EXTT7=
EXTT8=
EXTT9=
EXTT10=
EXTT11=
EXTT12=
EXTT13=
PLAYORDER=
